<?xml version="1.0" encoding="UTF-8" standalone="no"?>
<svg
   xmlns:dc="http://purl.org/dc/elements/1.1/"
   xmlns:cc="http://creativecommons.org/ns#"
   xmlns:rdf="http://www.w3.org/1999/02/22-rdf-syntax-ns#"
   xmlns:svg="http://www.w3.org/2000/svg"
   xmlns="http://www.w3.org/2000/svg"
   xmlns:sodipodi="http://sodipodi.sourceforge.net/DTD/sodipodi-0.dtd"
   xmlns:inkscape="http://www.inkscape.org/namespaces/inkscape"
   inkscape:version="1.0 (4035a4fb49, 2020-05-01)"
   sodipodi:docname="drupal.svg"
   id="svg11"
   version="1.1"
   fill="none"
   viewBox="0 0 1016 1125"
   height="1125"
   width="1016">
  <metadata
     id="metadata15">
    <rdf:RDF>
      <cc:Work
         rdf:about="">
        <dc:format>image/svg+xml</dc:format>
        <dc:type
           rdf:resource="http://purl.org/dc/dcmitype/StillImage" />
        <dc:title></dc:title>
      </cc:Work>
    </rdf:RDF>
  </metadata>
  <sodipodi:namedview
     inkscape:current-layer="svg11"
     inkscape:window-maximized="1"
     inkscape:window-y="-9"
     inkscape:window-x="-9"
     inkscape:cy="263.97473"
     inkscape:cx="-252.24926"
     inkscape:zoom="0.39019351"
     units="px"
     showgrid="false"
     id="namedview13"
     inkscape:window-height="991"
     inkscape:window-width="1920"
     inkscape:pageshadow="2"
     inkscape:pageopacity="0"
     guidetolerance="10"
     gridtolerance="10"
     objecttolerance="10"
     borderopacity="1"
     bordercolor="#666666"
     pagecolor="#ffffff" />
  <path
     style="fill:url(#paint0_linear_94_789)"
     id="path2"
     fill-opacity="0.548"
     fill="url(#paint0_linear_94_789)"
     d="m 547.9516,120.74347 c 29.531,5.273 59.493,10.623 91.465,20.824 0.589,0.193 1.223,0.399 1.9,0.619 45.368,14.761 283.523,92.246 354.771,373.878 72.311,285.833 -105.844,531.72103 -366.282,597.60703 -260.437,65.887 -546.798001,-79.694 -617.193001,-357.95503 -70.396,-278.262 114.325001,-462.7168 149.142601,-493.308 10.0929,-9.35 19.6212,-17.707 28.9059,-25.851 28.4003,-24.91 54.52104,-47.821 87.5446,-91 20.4005,-28.104 35.5904,-64.041002 24.284,-140.3870015 50.6729,36.6759995 110.8029,78.8229995 150.0369,92.9999995 32.608,11.357002 63.769,16.921002 95.425,22.573002 z m -279.8871,749.253 c -20.115,-84.106 38.806,-182.794 137.9311,-209.353 73.577,-19.29 144.876,8.079 204.127,30.824 42.336,16.252 78.521,30.142 104.99,22.962 27.081,-7.435 60.08,-44.63 92.657,-81.348 v -10e-4 c 32.071,-36.148 63.732,-71.835 88.933,-78.21 54.018,-13.666 83.32,38.599 91.779,72.034 8.458,33.435 12.932,96.557 -3.134,140.772 -16.067,44.216 -29.385,62.537 -59.858,67.926 -18.443,3.079 -51.687,-17.069 -87.043,-38.497 -40.784,-24.717 -84.377,-51.138 -111.299,-45.57 -28.026,6.067 -63.647,41.93 -103.897,82.452 -51.02,51.366 -109.478,110.219 -169.328,125.36 -64.821,16.399 -86.71,11.56 -111.9172,3.05 -38.1415,-14.454 -63.0204,-44.895 -73.9868,-92.583 z m 504.0101,-39.149 c -15.058,-5.407 -33.724,-1.844 -51.022,2.532 l 0.061,-0.016 c -2.012,0.509 -3.925,0.978 -5.762,1.427 -13.959,3.417 -23.492,5.751 -37.998,16.539 -16.102,11.977 -30.721,33.502 -40.156,47.393 l -0.542,0.798 c -9.411,13.853 -9.222,23.279 -0.613,29.995 8.568,6.684 13.691,-0.252 28.109,-19.775 l 0.205,-0.278 c 1.271,-1.721 2.497,-3.413 3.7,-5.075 12.6,-17.396 22.789,-31.465 57.304,-40.197 36.985,-9.356 47.277,2.036 58.193,14.12 0.245,0.27 0.489,0.541 0.734,0.812 l 0.111,0.123 c 11.103,12.264 12.742,14.075 19.159,7.891 1.939,-1.219 3.586,-2.848 4.826,-4.772 1.239,-1.923 2.041,-4.094 2.349,-6.36 0.307,-2.266 0.113,-4.571 -0.57,-6.753 -0.682,-2.182 -1.837,-4.187 -3.381,-5.874 l -0.086,-0.119 c -7.054,-9.714 -19.624,-27.027 -34.621,-32.411 z m -68.195,171.02303 c -69.192,17.504 -105.157,11.651 -131.131,-0.145 l 0.151,-0.167 c -0.54,-0.188 -0.98,-0.355 -1.357,-0.498 -2.239,-0.848 -2.239,-0.848 -7.798,0.558 -6.03,1.991 -11.121,6.123 -14.305,11.611 -1.188,1.844 -1.983,3.911 -2.338,6.074 -0.354,2.162 -0.26,4.375 0.277,6.499 0.538,2.124 1.507,4.114 2.847,5.848 1.34,1.734 3.023,3.175 4.945,4.232 58.449,31.164 136.524,7.933 193.547,-12.229 39.938,-15.245 75.125,-40.78003 101.975,-74.00503 1.94,-2.853 2.957,-6.23 2.917,-9.677 -0.041,-3.446 -1.138,-6.796 -3.144,-9.599 -2.195,-4.085 -8.19,-9.4 -16.001,0.567 -17.697,21.685 -61.394,53.427 -130.585,70.93103 z"
     clip-rule="evenodd"
     fill-rule="evenodd" />
  <defs
     id="defs9">
    <linearGradient
       gradientTransform="translate(248.5946,386.98747)"
       gradientUnits="userSpaceOnUse"
       y2="-568.11401"
       x2="-348.56699"
       y1="-1541.77"
       x1="1881.1899"
       id="paint0_linear_94_789">
      <stop
         id="stop4" />
      <stop
         id="stop6"
         stop-opacity="0"
         stop-color="white"
         offset="1" />
    </linearGradient>
  </defs>
</svg>
